<svg width="40" height="40" viewBox="0 0 40 40" fill="none" xmlns="http://www.w3.org/2000/svg">
<mask id="path-1-inside-1_10_2481" fill="white">
<path fill-rule="evenodd" clip-rule="evenodd" d="M2 0C0.895431 0 0 0.89543 0 2V24C0 25.1046 0.89543 26 2 26H14V38C14 39.1046 14.8954 40 16 40H38C39.1046 40 40 39.1046 40 38V16C40 14.8954 39.1046 14 38 14H26V2C26 0.895431 25.1046 0 24 0H2Z"/>
</mask>
<path fill-rule="evenodd" clip-rule="evenodd" d="M2 0C0.895431 0 0 0.89543 0 2V24C0 25.1046 0.89543 26 2 26H14V38C14 39.1046 14.8954 40 16 40H38C39.1046 40 40 39.1046 40 38V16C40 14.8954 39.1046 14 38 14H26V2C26 0.895431 25.1046 0 24 0H2Z" fill="#2563F4"/>
<path d="M14 26H15V25H14V26ZM26 14H25V15H26V14ZM1 2C1 1.44772 1.44772 1 2 1V-1C0.343146 -1 -1 0.343146 -1 2H1ZM1 24V2H-1V24H1ZM2 25C1.44772 25 1 24.5523 1 24H-1C-1 25.6569 0.343145 27 2 27V25ZM14 25H2V27H14V25ZM15 38V26H13V38H15ZM16 39C15.4477 39 15 38.5523 15 38H13C13 39.6569 14.3431 41 16 41V39ZM38 39H16V41H38V39ZM39 38C39 38.5523 38.5523 39 38 39V41C39.6569 41 41 39.6569 41 38H39ZM39 16V38H41V16H39ZM38 15C38.5523 15 39 15.4477 39 16H41C41 14.3431 39.6569 13 38 13V15ZM26 15H38V13H26V15ZM25 2V14H27V2H25ZM24 1C24.5523 1 25 1.44772 25 2H27C27 0.343146 25.6569 -1 24 -1V1ZM2 1H24V-1H2V1Z" fill="#2563F4" fill-opacity="0.36" mask="url(#path-1-inside-1_10_2481)"/>
<path d="M4.036 14C3.98 14 3.96 13.968 3.976 13.904L7.048 5.504C7.048 5.472 7.068 5.456 7.108 5.456H8.152C8.184 5.456 8.208 5.472 8.224 5.504L11.284 13.904C11.3 13.968 11.28 14 11.224 14H9.88C9.856 14 9.836 13.984 9.82 13.952L9.196 12.104H6.1C5.988 12.416 5.88 12.724 5.776 13.028C5.672 13.332 5.564 13.64 5.452 13.952C5.436 13.984 5.412 14 5.38 14H4.036ZM8.764 10.844C8.756 10.788 8.736 10.732 8.704 10.676C8.64 10.484 8.58 10.308 8.524 10.148C8.468 9.98 8.42 9.836 8.38 9.716C8.348 9.636 8.32 9.56 8.296 9.488C8.272 9.416 8.248 9.344 8.224 9.272C8.208 9.208 8.188 9.148 8.164 9.092C8.14 9.036 8.12 8.984 8.104 8.936C8.064 8.824 8.028 8.712 7.996 8.6C7.964 8.48 7.928 8.36 7.888 8.24C7.872 8.184 7.852 8.124 7.828 8.06C7.804 7.996 7.78 7.924 7.756 7.844C7.74 7.772 7.724 7.724 7.708 7.7C7.7 7.668 7.68 7.6 7.648 7.496C7.6 7.632 7.556 7.756 7.516 7.868C7.484 7.972 7.452 8.072 7.42 8.168C7.412 8.2 7.4 8.24 7.384 8.288C7.368 8.352 7.348 8.412 7.324 8.468C7.3 8.524 7.28 8.584 7.264 8.648C7.248 8.712 7.228 8.772 7.204 8.828C7.18 8.884 7.16 8.94 7.144 8.996C7.104 9.116 7.064 9.244 7.024 9.38C6.984 9.508 6.94 9.64 6.892 9.776C6.836 9.912 6.78 10.064 6.724 10.232C6.676 10.392 6.608 10.596 6.52 10.844H8.764Z" fill="white"/>
<path d="M28.924 34C28.876 34 28.852 33.98 28.852 33.94V25.54C28.852 25.492 28.876 25.468 28.924 25.468H32.188C32.996 25.468 33.628 25.688 34.084 26.128C34.524 26.568 34.744 27.124 34.744 27.796C34.744 28.164 34.656 28.508 34.48 28.828C34.328 29.116 34.036 29.372 33.604 29.596C34.012 29.732 34.316 29.972 34.516 30.316C34.628 30.516 34.716 30.72 34.78 30.928C34.844 31.128 34.876 31.336 34.876 31.552C34.876 32.304 34.636 32.9 34.156 33.34C33.684 33.78 33.124 34 32.476 34H28.924ZM30.268 30.28V32.668H32.164C32.604 32.668 32.932 32.548 33.148 32.308C33.356 32.06 33.46 31.784 33.46 31.48C33.46 31.168 33.356 30.888 33.148 30.64C32.94 30.4 32.612 30.28 32.164 30.28H30.268ZM30.268 26.74V29.008H32.044C32.476 29.008 32.796 28.9 33.004 28.684C33.22 28.468 33.328 28.2 33.328 27.88C33.328 27.56 33.22 27.292 33.004 27.076C32.804 26.852 32.484 26.74 32.044 26.74H30.268Z" fill="white"/>
</svg>
